<svg xmlns="http://www.w3.org/2000/svg" xmlns:svg="http://www.w3.org/2000/svg" xmlns:xlink="http://www.w3.org/1999/xlink" id="svg1489" width="80" height="80" version="1.1" viewBox="0 0 21.167 21.167"><defs id="defs1483"><pattern id="pattern3970" patternTransform="translate(0,-1.3250492e-5)" xlink:href="#pattern3962"/><pattern id="pattern3959" patternTransform="translate(-125.12676,-194.99997)" xlink:href="#pattern3902"/><pattern id="pattern3487" width="40" height="40" patternTransform="matrix(0.26458333,0,0,0.26458333,0,286.41667)" patternUnits="userSpaceOnUse"><path style="fill:#ff0;fill-opacity:1;fill-rule:evenodd;stroke:none;stroke-width:1px;stroke-linecap:butt;stroke-linejoin:miter;stroke-opacity:1" id="path2046" d="M 40,0 V 20.000013 L 20,39.999989 H 0 L 40,0 M 0,0 H 20 L 0,20.000013 Z"/></pattern><clipPath id="clipPath1036" clipPathUnits="userSpaceOnUse"><circle id="ellipse1038" cx="72.747" cy="82.594" r="43" style="fill:#010101;fill-opacity:1;stroke:none;stroke-width:.66145831;stroke-linecap:round;stroke-linejoin:round;stroke-miterlimit:4;stroke-dasharray:none;stroke-opacity:1"/></clipPath><pattern id="pattern3902" width="310.254" height="310.254" patternTransform="matrix(0.26458333,0,0,0.26458333,-33.106453,224.2396)" patternUnits="userSpaceOnUse"><g id="g3900" transform="matrix(3.7795277,0,0,3.7795277,125.12676,-847.51977)"><path style="fill:none;fill-rule:evenodd;stroke:#267bc6;stroke-width:.15000001;stroke-linecap:butt;stroke-linejoin:miter;stroke-miterlimit:4;stroke-dasharray:none;stroke-opacity:1" id="path4836-72" d="m -33.072912,257.31251 71.437498,35.71875"/><path style="fill:none;fill-rule:evenodd;stroke:#267bc6;stroke-width:.15000001;stroke-linecap:butt;stroke-linejoin:miter;stroke-miterlimit:4;stroke-dasharray:none;stroke-opacity:1" id="path4836-2-2" d="m -33.072912,267.89585 63.499999,31.75"/><path style="fill:none;fill-rule:evenodd;stroke:#267bc6;stroke-width:.15000001;stroke-linecap:butt;stroke-linejoin:miter;stroke-miterlimit:4;stroke-dasharray:none;stroke-opacity:1" id="path4836-6-1-0" d="m -30.427079,279.8021 50.270833,25.13541"/><path style="fill:none;fill-rule:evenodd;stroke:#267bc6;stroke-width:.15000001;stroke-linecap:butt;stroke-linejoin:miter;stroke-miterlimit:4;stroke-dasharray:none;stroke-opacity:1" id="path4836-23-9" d="m 46.302086,257.31251 -68.791665,34.39584"/><path style="fill:none;fill-rule:evenodd;stroke:#267bc6;stroke-width:.15000001;stroke-linecap:butt;stroke-linejoin:miter;stroke-miterlimit:4;stroke-dasharray:none;stroke-opacity:1" id="path4836-2-7-0" d="m 48.947917,266.57293 -66.145829,33.07292"/><path style="fill:none;fill-rule:evenodd;stroke:#267bc6;stroke-width:.15000001;stroke-linecap:butt;stroke-linejoin:miter;stroke-miterlimit:4;stroke-dasharray:none;stroke-opacity:1" id="path4836-6-1-8-1" d="M 46.302086,278.47918 -6.614579,304.93751"/><path style="fill:none;fill-rule:evenodd;stroke:#267bc6;stroke-width:.15000001;stroke-linecap:butt;stroke-linejoin:miter;stroke-miterlimit:4;stroke-dasharray:none;stroke-opacity:1" id="path4981-7" d="M 3.968754,306.26043 V 224.2396"/><path style="fill:none;fill-rule:evenodd;stroke:#267bc6;stroke-width:.15000001;stroke-linecap:butt;stroke-linejoin:miter;stroke-miterlimit:4;stroke-dasharray:none;stroke-opacity:1" id="path4981-2-3-6" d="M 14.552087,306.26043 V 224.2396"/><path style="fill:none;fill-rule:evenodd;stroke:#267bc6;stroke-width:.15000001;stroke-linecap:butt;stroke-linejoin:miter;stroke-miterlimit:4;stroke-dasharray:none;stroke-opacity:1" id="path4836-72-4" d="m -33.072912,254.66668 71.437498,35.71875"/><path style="fill:none;fill-rule:evenodd;stroke:#267bc6;stroke-width:.15000001;stroke-linecap:butt;stroke-linejoin:miter;stroke-miterlimit:4;stroke-dasharray:none;stroke-opacity:1" id="path4836-2-2-4" d="M -33.072912,265.25001 33.07292,298.32293"/><path style="fill:none;fill-rule:evenodd;stroke:#267bc6;stroke-width:.15000001;stroke-linecap:butt;stroke-linejoin:miter;stroke-miterlimit:4;stroke-dasharray:none;stroke-opacity:1" id="path4836-6-1-0-6" d="M -33.072912,275.83335 22.489587,303.6146"/><path style="fill:none;fill-rule:evenodd;stroke:#267bc6;stroke-width:.15000001;stroke-linecap:butt;stroke-linejoin:miter;stroke-miterlimit:4;stroke-dasharray:none;stroke-opacity:1" id="path4836-23-9-6" d="m 46.302086,254.66668 -71.437498,35.71875"/><path style="fill:none;fill-rule:evenodd;stroke:#267bc6;stroke-width:.15000001;stroke-linecap:butt;stroke-linejoin:miter;stroke-miterlimit:4;stroke-dasharray:none;stroke-opacity:1" id="path4836-2-7-0-2" d="m 48.947917,263.9271 -66.145829,33.07291"/><path style="fill:none;fill-rule:evenodd;stroke:#267bc6;stroke-width:.15000001;stroke-linecap:butt;stroke-linejoin:miter;stroke-miterlimit:4;stroke-dasharray:none;stroke-opacity:1" id="path4836-6-1-8-4-0-2" d="M 48.947917,274.51043 -9.260412,303.6146"/><path style="fill:none;fill-rule:evenodd;stroke:#267bc6;stroke-width:.15000001;stroke-linecap:butt;stroke-linejoin:miter;stroke-miterlimit:4;stroke-dasharray:none;stroke-opacity:1" id="path4836-47-6-7-4" d="m -33.072912,262.60418 68.791668,34.39583"/><path style="fill:none;fill-rule:evenodd;stroke:#267bc6;stroke-width:.15000001;stroke-linecap:butt;stroke-linejoin:miter;stroke-miterlimit:4;stroke-dasharray:none;stroke-opacity:1" id="path4836-2-0-4-4-0-2" d="m -33.072912,252.02085 74.083329,37.04166"/><path style="fill:none;fill-rule:evenodd;stroke:#267bc6;stroke-width:.15000001;stroke-linecap:butt;stroke-linejoin:miter;stroke-miterlimit:4;stroke-dasharray:none;stroke-opacity:1" id="path4981-2-3-9-7-8-3-2" d="M 17.19792,306.26043 V 225.56252"/><path style="fill:none;fill-rule:evenodd;stroke:#267bc6;stroke-width:.15000001;stroke-linecap:butt;stroke-linejoin:miter;stroke-miterlimit:4;stroke-dasharray:none;stroke-opacity:1" id="path4981-2-3-9-7-8-3-6-1" d="M 11.906254,306.26043 V 224.2396"/><path style="fill:none;fill-rule:evenodd;stroke:#267bc6;stroke-width:.15000001;stroke-linecap:butt;stroke-linejoin:miter;stroke-miterlimit:4;stroke-dasharray:none;stroke-opacity:1" id="path4981-2-3-9-7-8-3-8-8" d="M 6.614587,306.26043 V 224.2396"/><path style="fill:none;fill-rule:evenodd;stroke:#267bc6;stroke-width:.15000001;stroke-linecap:butt;stroke-linejoin:miter;stroke-miterlimit:4;stroke-dasharray:none;stroke-opacity:1" id="path4981-2-3-9-7-8-3-6-0-50" d="M 1.322921,306.26043 V 224.2396"/><path style="fill:none;fill-rule:evenodd;stroke:#267bc6;stroke-width:.15000001;stroke-linecap:butt;stroke-linejoin:miter;stroke-miterlimit:4;stroke-dasharray:none;stroke-opacity:1" id="path4836-6-1-0-6-2" d="M -33.072912,273.18751 25.13542,302.29168"/><path style="fill:none;fill-rule:evenodd;stroke:#267bc6;stroke-width:.15000001;stroke-linecap:butt;stroke-linejoin:miter;stroke-miterlimit:4;stroke-dasharray:none;stroke-opacity:1" id="path4836-23-4-4-8" d="m 48.947917,258.63543 -71.437496,35.71875"/><path style="fill:none;fill-rule:evenodd;stroke:#267bc6;stroke-width:.15000001;stroke-linecap:butt;stroke-linejoin:miter;stroke-miterlimit:4;stroke-dasharray:none;stroke-opacity:1" id="path4836-23-4-4-8-4" d="m 48.947917,269.21876 -63.499996,31.75"/><path style="fill:none;fill-rule:evenodd;stroke:#267bc6;stroke-width:.15000001;stroke-linecap:butt;stroke-linejoin:miter;stroke-miterlimit:4;stroke-dasharray:none;stroke-opacity:1" id="path4836-23-4-4-8-4-7" d="m 46.302086,281.12501 -47.624998,23.8125"/><path style="fill:none;fill-rule:evenodd;stroke:#7facde;stroke-width:.15000001;stroke-linecap:butt;stroke-linejoin:miter;stroke-miterlimit:4;stroke-dasharray:none;stroke-opacity:1" id="path4981" d="M 9.260421,306.26043 V 224.2396"/><path style="fill:none;fill-rule:evenodd;stroke:#7facde;stroke-width:.15000001;stroke-linecap:butt;stroke-linejoin:miter;stroke-miterlimit:4;stroke-dasharray:none;stroke-opacity:1" id="path4981-2-3" d="M 19.843754,304.93751 V 225.56252"/><path style="fill:none;fill-rule:evenodd;stroke:#7facde;stroke-width:.15000001;stroke-linecap:butt;stroke-linejoin:miter;stroke-miterlimit:4;stroke-dasharray:none;stroke-opacity:1" id="path4836-6-1-8" d="M 43.656256,285.09376 1.322921,306.26043"/><path style="fill:none;fill-rule:evenodd;stroke:#7facde;stroke-width:.15000001;stroke-linecap:butt;stroke-linejoin:miter;stroke-miterlimit:4;stroke-dasharray:none;stroke-opacity:1" id="path4836-2-7" d="m 48.947917,271.8646 -60.854162,30.42708"/><path style="fill:none;fill-rule:evenodd;stroke:#7facde;stroke-width:.15000001;stroke-linecap:butt;stroke-linejoin:miter;stroke-miterlimit:4;stroke-dasharray:none;stroke-opacity:1" id="path4836-23" d="M 48.947917,261.28126 -19.843745,295.6771"/><path style="fill:none;fill-rule:evenodd;stroke:#7facde;stroke-width:.15000001;stroke-linecap:butt;stroke-linejoin:miter;stroke-miterlimit:4;stroke-dasharray:none;stroke-opacity:1" id="path4836-2" d="m -33.072912,270.54168 60.854165,30.42708"/><path style="fill:none;fill-rule:evenodd;stroke:#7facde;stroke-width:.15000001;stroke-linecap:butt;stroke-linejoin:miter;stroke-miterlimit:4;stroke-dasharray:none;stroke-opacity:1" id="path4836-47" d="m -33.072912,259.95835 68.791668,34.39583"/><path style="fill:none;fill-rule:evenodd;stroke:#7facde;stroke-width:.15000001;stroke-linecap:butt;stroke-linejoin:miter;stroke-miterlimit:4;stroke-dasharray:none;stroke-opacity:1" id="path4836-2-0" d="m -30.427079,250.69793 71.437496,35.71875"/></g></pattern><pattern id="pattern3962" width="80" height="80" patternTransform="matrix(0.26458333,0,0,0.26458333,0,275.83334)" patternUnits="userSpaceOnUse"><path id="rect3937" d="M 0,0 V 80.000002 H 80.000002 V 0 Z" style="fill:url(#pattern3959);stroke:none;stroke-width:3.77952766"/></pattern><pattern id="pattern3967" width="80" height="80" patternTransform="matrix(0.26458333,0,0,0.26458333,0,275.83334)" patternUnits="userSpaceOnUse"><rect id="rect3965" width="80" height="80" x="0" y="0" style="fill:url(#pattern3970);stroke:none;stroke-width:3.77952766"/></pattern></defs><metadata id="metadata1486"/><g id="layer1" transform="translate(0,-275.83334)"><path style="fill:none;fill-rule:evenodd;stroke:#7facde;stroke-width:.56692916;stroke-linecap:butt;stroke-linejoin:miter;stroke-miterlimit:4;stroke-dasharray:none;stroke-opacity:1" id="path4272" d="M 34.999996 2.6822091e-06 L 79.999986 22.499998" transform="matrix(0.26458333,0,0,0.26458333,0,275.83334)"/><path style="fill:none;fill-rule:evenodd;stroke:#7facde;stroke-width:.56692916;stroke-linecap:butt;stroke-linejoin:miter;stroke-miterlimit:4;stroke-dasharray:none;stroke-opacity:1" id="path4266" d="M 5.654931e-06 22.500007 L 80.000002 62.500001" transform="matrix(0.26458333,0,0,0.26458333,0,275.83334)"/><path style="fill:none;fill-rule:evenodd;stroke:#7facde;stroke-width:.56692916;stroke-linecap:butt;stroke-linejoin:miter;stroke-miterlimit:4;stroke-dasharray:none;stroke-opacity:1" id="path4260" d="M 2.4468886e-06 62.499996 L 34.999994 79.99999" transform="matrix(0.26458333,0,0,0.26458333,0,275.83334)"/><path style="fill:none;fill-rule:evenodd;stroke:#7facde;stroke-width:.56692916;stroke-linecap:butt;stroke-linejoin:miter;stroke-miterlimit:4;stroke-dasharray:none;stroke-opacity:1" id="path4254" d="M 54.999986 2.2735488e-05 L -1.2203941e-05 27.500023" transform="matrix(0.26458333,0,0,0.26458333,0,275.83334)"/><path style="fill:none;fill-rule:evenodd;stroke:#7facde;stroke-width:.56692916;stroke-linecap:butt;stroke-linejoin:miter;stroke-miterlimit:4;stroke-dasharray:none;stroke-opacity:1" id="path4248" d="M 79.999983 27.500011 L -1.6139006e-05 67.50001" transform="matrix(0.26458333,0,0,0.26458333,0,275.83334)"/><path style="fill:none;fill-rule:evenodd;stroke:#7facde;stroke-width:.56692916;stroke-linecap:butt;stroke-linejoin:miter;stroke-miterlimit:4;stroke-dasharray:none;stroke-opacity:1" id="path4242" d="M 80.000004 67.499994 L 55.000003 79.999997" transform="matrix(0.26458333,0,0,0.26458333,0,275.83334)"/><path style="fill:none;fill-rule:evenodd;stroke:#7facde;stroke-width:.56692916;stroke-linecap:butt;stroke-linejoin:miter;stroke-miterlimit:4;stroke-dasharray:none;stroke-opacity:1" id="path4236" d="M 44.999997 79.999993 L 44.999997 -4.5110014e-09" transform="matrix(0.26458333,0,0,0.26458333,0,275.83334)"/><path style="fill:none;fill-rule:evenodd;stroke:#7facde;stroke-width:.56692916;stroke-linecap:butt;stroke-linejoin:miter;stroke-miterlimit:4;stroke-dasharray:none;stroke-opacity:1" id="path4230" d="M 4.9999973 80.000005 L 4.9999973 5.1196436e-06" transform="matrix(0.26458333,0,0,0.26458333,0,275.83334)"/><path style="fill:none;fill-rule:evenodd;stroke:#267bc6;stroke-width:.56692916;stroke-linecap:butt;stroke-linejoin:miter;stroke-miterlimit:4;stroke-dasharray:none;stroke-opacity:1" id="path4223" d="M 80.000005 57.500015 L 35 80.000011" transform="matrix(0.26458333,0,0,0.26458333,0,275.83334)"/><path style="fill:none;fill-rule:evenodd;stroke:#267bc6;stroke-width:.56692916;stroke-linecap:butt;stroke-linejoin:miter;stroke-miterlimit:4;stroke-dasharray:none;stroke-opacity:1" id="path4221" d="M 79.999996 17.500013 L -6.6469969e-07 57.500003" transform="matrix(0.26458333,0,0,0.26458333,0,275.83334)"/><path style="fill:none;fill-rule:evenodd;stroke:#267bc6;stroke-width:.56692916;stroke-linecap:butt;stroke-linejoin:miter;stroke-miterlimit:4;stroke-dasharray:none;stroke-opacity:1" id="path4219" d="M 34.99999 1.6875e-06 L -1.0961477e-05 17.500003" transform="matrix(0.26458333,0,0,0.26458333,0,275.83334)"/><path style="fill:none;fill-rule:evenodd;stroke:#267bc6;stroke-width:.56692916;stroke-linecap:butt;stroke-linejoin:miter;stroke-miterlimit:4;stroke-dasharray:none;stroke-opacity:1" id="path4215" d="M -4.6070593e-06 72.500011 L 14.999997 80.000013" transform="matrix(0.26458333,0,0,0.26458333,0,275.83334)"/><path style="fill:none;fill-rule:evenodd;stroke:#267bc6;stroke-width:.56692916;stroke-linecap:butt;stroke-linejoin:miter;stroke-miterlimit:4;stroke-dasharray:none;stroke-opacity:1" id="path4213" d="m 55,80 -10e-7,-80" transform="matrix(0.26458333,0,0,0.26458333,0,275.83334)"/><path style="fill:none;fill-rule:evenodd;stroke:#267bc6;stroke-width:.56692916;stroke-linecap:butt;stroke-linejoin:miter;stroke-miterlimit:4;stroke-dasharray:none;stroke-opacity:1" id="path4211" d="m 75,80 -10e-7,-80" transform="matrix(0.26458333,0,0,0.26458333,0,275.83334)"/><path style="fill:none;fill-rule:evenodd;stroke:#267bc6;stroke-width:.56692916;stroke-linecap:butt;stroke-linejoin:miter;stroke-miterlimit:4;stroke-dasharray:none;stroke-opacity:1" id="path4209" d="M 15,80 15,0" transform="matrix(0.26458333,0,0,0.26458333,0,275.83334)"/><path style="fill:none;fill-rule:evenodd;stroke:#267bc6;stroke-width:.56692916;stroke-linecap:butt;stroke-linejoin:miter;stroke-miterlimit:4;stroke-dasharray:none;stroke-opacity:1" id="path4207" d="m 35,80 -10e-7,-80" transform="matrix(0.26458333,0,0,0.26458333,0,275.83334)"/><path style="fill:none;fill-rule:evenodd;stroke:#267bc6;stroke-width:.56692916;stroke-linecap:butt;stroke-linejoin:miter;stroke-miterlimit:4;stroke-dasharray:none;stroke-opacity:1" id="path4205" d="M 14.999987 -6.0750001e-06 L 79.99999 32.499992" transform="matrix(0.26458333,0,0,0.26458333,0,275.83334)"/><path style="fill:none;fill-rule:evenodd;stroke:#267bc6;stroke-width:.56692916;stroke-linecap:butt;stroke-linejoin:miter;stroke-miterlimit:4;stroke-dasharray:none;stroke-opacity:1" id="path4201" d="M 5.6549313e-06 32.499998 L 80.000015 72.499995" transform="matrix(0.26458333,0,0,0.26458333,0,275.83334)"/><path style="fill:none;fill-rule:evenodd;stroke:#267bc6;stroke-width:.56692916;stroke-linecap:butt;stroke-linejoin:miter;stroke-miterlimit:4;stroke-dasharray:none;stroke-opacity:1" id="path4199" d="M 79.999996 77.499997 L 75 80" transform="matrix(0.26458333,0,0,0.26458333,0,275.83334)"/><path style="fill:none;fill-rule:evenodd;stroke:#267bc6;stroke-width:.56692916;stroke-linecap:butt;stroke-linejoin:miter;stroke-miterlimit:4;stroke-dasharray:none;stroke-opacity:1" id="path4197" d="M 79.999995 37.500006 L -2.5225048e-06 77.500013" transform="matrix(0.26458333,0,0,0.26458333,0,275.83334)"/><path style="fill:none;fill-rule:evenodd;stroke:#267bc6;stroke-width:.56692916;stroke-linecap:butt;stroke-linejoin:miter;stroke-miterlimit:4;stroke-dasharray:none;stroke-opacity:1" id="path4195" d="M 74.999999,0 -6.3322508e-6,37.500002" transform="matrix(0.26458333,0,0,0.26458333,0,275.83334)"/><path style="fill:none;fill-rule:evenodd;stroke:#267bc6;stroke-width:.56692916;stroke-linecap:butt;stroke-linejoin:miter;stroke-miterlimit:4;stroke-dasharray:none;stroke-opacity:1" id="path4193" d="M -1.7559387e-06 42.500015 L 75.000003 80.000012" transform="matrix(0.26458333,0,0,0.26458333,0,275.83334)"/><path style="fill:none;fill-rule:evenodd;stroke:#267bc6;stroke-width:.56692916;stroke-linecap:butt;stroke-linejoin:miter;stroke-miterlimit:4;stroke-dasharray:none;stroke-opacity:1" id="path4191" d="M 2.3525525e-06 2.5000022 L 80.000006 42.500005" transform="matrix(0.26458333,0,0,0.26458333,0,275.83334)"/><path style="fill:none;fill-rule:evenodd;stroke:#267bc6;stroke-width:.56692916;stroke-linecap:butt;stroke-linejoin:miter;stroke-miterlimit:4;stroke-dasharray:none;stroke-opacity:1" id="path4187" d="M 25 80.000008 L 25 6.5891389e-06" transform="matrix(0.26458333,0,0,0.26458333,0,275.83334)"/><path style="fill:none;fill-rule:evenodd;stroke:#267bc6;stroke-width:.56692916;stroke-linecap:butt;stroke-linejoin:miter;stroke-miterlimit:4;stroke-dasharray:none;stroke-opacity:1" id="path4183" d="M 65.000002 80.000004 L 65.000004 4.0627693e-06" transform="matrix(0.26458333,0,0,0.26458333,0,275.83334)"/><path style="fill:none;fill-rule:evenodd;stroke:#267bc6;stroke-width:.56692916;stroke-linecap:butt;stroke-linejoin:miter;stroke-miterlimit:4;stroke-dasharray:none;stroke-opacity:1" id="path4181" d="M 55.000005 -6.3750001e-06 L 80.000009 12.499993" transform="matrix(0.26458333,0,0,0.26458333,0,275.83334)"/><path style="fill:none;fill-rule:evenodd;stroke:#267bc6;stroke-width:.56692916;stroke-linecap:butt;stroke-linejoin:miter;stroke-miterlimit:4;stroke-dasharray:none;stroke-opacity:1" id="path4177" d="M 80.000001,47.500001 15,79.999998" transform="matrix(0.26458333,0,0,0.26458333,0,275.83334)"/><path style="fill:none;fill-rule:evenodd;stroke:#267bc6;stroke-width:.56692916;stroke-linecap:butt;stroke-linejoin:miter;stroke-miterlimit:4;stroke-dasharray:none;stroke-opacity:1" id="path4175" d="M 79.999993 7.5000043 L -6.3322508e-06 47.500013" transform="matrix(0.26458333,0,0,0.26458333,0,275.83334)"/><path style="fill:none;fill-rule:evenodd;stroke:#267bc6;stroke-width:.56692916;stroke-linecap:butt;stroke-linejoin:miter;stroke-miterlimit:4;stroke-dasharray:none;stroke-opacity:1" id="path4173" d="M -7.1305767e-06 52.500015 L 55.000001 80.000021" transform="matrix(0.26458333,0,0,0.26458333,0,275.83334)"/><path style="fill:none;fill-rule:evenodd;stroke:#267bc6;stroke-width:.56692916;stroke-linecap:butt;stroke-linejoin:miter;stroke-miterlimit:4;stroke-dasharray:none;stroke-opacity:1" id="path4171" d="M 2.3525526e-06 12.500006 L 80.000006 52.499998" transform="matrix(0.26458333,0,0,0.26458333,0,275.83334)"/><path style="fill:none;fill-rule:evenodd;stroke:#267bc6;stroke-width:.56692916;stroke-linecap:butt;stroke-linejoin:miter;stroke-miterlimit:4;stroke-dasharray:none;stroke-opacity:1" id="path4169" d="M 15,0 1.4957703e-5,7.4999841" transform="matrix(0.26458333,0,0,0.26458333,0,275.83334)"/><path style="fill:none;fill-rule:evenodd;stroke:#267bc6;stroke-width:.56692916;stroke-linecap:butt;stroke-linejoin:miter;stroke-miterlimit:4;stroke-dasharray:none;stroke-opacity:1" id="path4167" d="M 75.000009 3.0937501e-06 L 80.00001 2.5000027" transform="matrix(0.26458333,0,0,0.26458333,0,275.83334)"/></g></svg>